<?xml version="1.0" standalone="no"?>
<!DOCTYPE svg PUBLIC "-//W3C//DTD SVG 20010904//EN"
 "http://www.w3.org/TR/2001/REC-SVG-20010904/DTD/svg10.dtd">
<svg version="1.0" xmlns="http://www.w3.org/2000/svg"
 width="800.000000pt" height="600.000000pt" viewBox="0 0 800.000000 600.000000"
 preserveAspectRatio="xMidYMid meet">

<g transform="translate(0.000000,600.000000) scale(0.100000,-0.100000)"
fill="#000000" stroke="none">
<path d="M3710 5245 c-52 -7 -126 -23 -163 -36 -58 -20 -78 -34 -130 -89 -89
-94 -147 -202 -167 -308 -14 -74 -15 -99 -3 -186 7 -56 18 -120 26 -144 l13
-42 22 30 c17 22 31 30 53 30 33 0 86 -25 106 -50 8 -10 12 -11 13 -3 0 24 30
0 49 -40 17 -37 33 -105 56 -241 6 -36 5 -38 -10 -26 -12 10 -19 10 -27 2 -8
-8 -5 -14 14 -21 21 -8 25 -16 26 -56 1 -26 10 -59 20 -74 10 -14 26 -44 37
-66 11 -24 34 -51 57 -65 21 -13 38 -28 38 -32 0 -11 34 -42 49 -46 7 -1 35
-20 62 -42 28 -22 57 -40 64 -40 7 0 15 -4 17 -8 2 -4 26 -20 53 -34 30 -16
49 -32 47 -41 -1 -8 5 -20 13 -27 18 -15 20 -46 4 -56 -8 -4 -7 -9 2 -15 21
-14 -18 -40 -47 -33 -27 7 -44 -7 -65 -53 -10 -25 -20 -33 -39 -33 -29 0 -110
37 -225 102 -144 81 -196 107 -230 114 -31 5 -36 3 -59 -33 -14 -21 -31 -54
-37 -73 -23 -66 -64 -117 -169 -210 -241 -214 -302 -286 -341 -409 -18 -54
-22 -98 -26 -241 -2 -96 0 -211 4 -255 5 -46 4 -105 -1 -138 -10 -56 -9 -60
31 -140 23 -45 59 -147 82 -227 22 -80 52 -176 66 -215 52 -142 86 -320 100
-515 7 -104 24 -219 36 -242 16 -31 358 -132 539 -160 135 -21 559 -17 695 6
163 27 405 99 546 162 61 27 61 28 56 63 -3 20 -13 100 -23 178 l-16 142 46
60 c26 33 51 63 57 66 5 4 45 -11 87 -33 114 -59 210 -85 311 -85 l84 1 79 78
c107 105 238 263 238 286 0 42 -51 223 -76 269 -39 71 -127 172 -230 263 -49
44 -91 84 -93 90 -2 6 -19 29 -38 50 -18 22 -33 44 -33 50 0 6 -23 34 -50 63
-28 29 -50 57 -50 63 0 5 -17 27 -38 49 -38 39 -50 59 -72 119 -7 17 -16 32
-20 32 -5 0 -25 28 -46 63 -68 112 -281 377 -333 414 -35 24 -143 54 -216 60
-89 7 -191 53 -214 97 -9 16 -34 49 -55 73 l-39 44 7 115 c6 107 9 119 36 159
17 24 30 47 30 51 0 4 6 15 14 23 37 42 107 265 105 336 -2 123 11 416 20 440
14 34 17 52 26 187 8 110 -1 140 -79 257 -51 78 -116 138 -196 180 l-58 31
-163 -1 c-90 -1 -207 -7 -259 -14z m360 -347 c0 -4 11 -8 25 -8 14 0 25 -5 25
-11 0 -5 5 -7 10 -4 6 3 13 -1 16 -9 4 -9 21 -31 40 -50 34 -34 43 -56 24 -56
-5 0 -7 -6 -4 -14 3 -8 -4 -23 -15 -33 -13 -11 -21 -29 -21 -50 0 -33 31 -124
70 -202 37 -73 37 -103 1 -143 -17 -20 -31 -41 -31 -48 0 -8 -8 -10 -23 -6
-24 6 -97 -35 -97 -54 0 -6 -7 -10 -16 -10 -8 0 -12 -5 -9 -10 4 -6 10 -8 15
-5 4 3 10 1 12 -5 2 -7 14 -6 35 2 27 10 35 10 45 -1 10 -11 10 -14 1 -18 -7
-3 -13 -12 -13 -20 0 -10 -6 -13 -16 -9 -9 3 -45 1 -81 -5 -35 -6 -66 -9 -69
-6 -3 3 7 16 21 30 16 14 23 27 17 31 -19 11 -86 -18 -99 -44 -21 -42 -1 -48
127 -35 59 5 79 4 94 -8 19 -14 18 -16 -17 -47 -41 -36 -45 -48 -19 -57 33
-12 61 -47 50 -60 -6 -7 -16 -13 -24 -13 -7 0 -15 -9 -19 -19 -7 -22 -39 -33
-53 -19 -7 7 -22 3 -46 -12 -20 -12 -36 -17 -36 -11 0 6 -11 11 -25 11 -14 0
-25 4 -25 9 0 5 -17 12 -37 15 -64 12 -75 17 -69 33 5 11 2 13 -10 9 -23 -9
-64 4 -64 21 0 8 -5 11 -11 7 -14 -8 -29 14 -22 33 3 7 11 13 19 13 24 0 15
17 -21 38 -20 12 -37 32 -41 47 -4 16 -12 24 -19 21 -12 -4 -16 4 -30 57 -2 4
-3 21 -4 38 0 17 -5 28 -11 24 -5 -3 -7 0 -4 8 3 8 -1 30 -9 50 -21 49 -40
210 -32 266 3 25 21 71 40 101 18 31 37 68 40 83 4 15 11 30 16 33 17 10 9 26
-11 21 -23 -6 -27 8 -5 16 8 4 17 1 21 -4 4 -7 19 1 38 19 17 17 63 42 101 56
58 21 86 25 163 24 50 -1 92 -6 92 -10z m160 -713 c0 -13 -29 -30 -37 -21 -2
2 1 13 8 24 14 22 29 20 29 -3z m249 -1460 c6 3 11 1 11 -4 0 -20 -29 -11 -40
12 -10 21 -10 21 4 3 8 -10 19 -15 25 -11z m871 -474 c0 -6 -4 -13 -10 -16 -5
-3 -10 -15 -10 -26 0 -10 -6 -18 -12 -16 -15 2 -18 -37 -6 -70 7 -22 5 -23
-36 -23 -52 0 -89 27 -84 61 2 16 23 34 68 61 66 38 90 46 90 29z m-155 -189
c-3 -16 -14 -37 -23 -45 -15 -14 -17 -14 -18 6 -1 12 -5 32 -9 44 -6 18 -3 25
16 32 31 12 43 0 34 -37z m-1211 -223 c3 -13 5 -26 6 -29 2 -3 2 -8 1 -12 0
-5 4 -8 9 -8 6 0 10 -7 10 -15 0 -8 5 -15 10 -15 6 0 10 -6 10 -14 0 -8 7 -17
16 -20 9 -3 14 -12 11 -20 -3 -7 0 -19 6 -25 6 -6 8 -11 4 -11 -4 0 4 -12 18
-27 14 -15 25 -33 25 -40 0 -7 5 -13 10 -13 7 0 7 -6 2 -17 -10 -20 -5 -41 14
-61 9 -9 11 -20 4 -37 -9 -23 -6 -29 12 -27 11 2 18 -27 7 -34 -6 -4 -5 -11 3
-22 10 -12 10 -16 1 -19 -9 -3 -10 -10 -3 -24 7 -12 7 -19 1 -19 -6 0 -5 -18
3 -45 8 -26 10 -42 4 -39 -6 4 -8 -2 -3 -16 5 -16 4 -20 -5 -15 -8 5 -10 -2
-5 -26 3 -19 6 -41 6 -49 0 -8 6 -25 12 -38 8 -17 7 -25 -3 -35 -10 -10 -11
-9 -5 2 6 10 4 12 -4 6 -8 -4 -10 -17 -6 -34 15 -58 12 -83 -12 -94 -13 -5
-23 -14 -23 -19 0 -4 -9 -8 -20 -8 -26 0 -90 31 -85 41 3 4 -3 6 -12 5 -10 -2
-21 1 -24 6 -3 5 -12 11 -20 13 -38 9 -59 18 -59 26 0 5 -6 9 -12 9 -18 1 -47
27 -87 78 -62 80 -110 156 -104 165 3 6 1 7 -5 3 -7 -4 -12 -3 -12 2 0 5 -9
20 -20 33 -27 33 -30 37 -76 94 -21 28 -64 76 -94 109 -99 105 -106 125 -64
176 82 97 417 263 499 247 14 -2 25 1 25 7 1 14 28 -62 34 -95z m516 86 c5 3
10 0 10 -8 0 -8 8 -21 17 -28 15 -12 16 -12 10 4 -5 12 -1 17 13 17 18 0 19
-3 8 -20 -7 -11 -16 -20 -20 -20 -4 0 -5 -6 -2 -14 3 -8 1 -17 -5 -20 -6 -4
-6 -18 0 -38 7 -24 5 -36 -5 -46 -16 -16 -40 -6 -32 13 2 7 -4 15 -15 18 -11
3 -19 0 -19 -6 0 -15 -25 31 -32 60 -3 12 -1 24 6 26 8 3 7 9 -3 21 -11 13
-12 19 -2 29 10 9 11 8 6 -5 -5 -13 -2 -18 9 -18 11 0 16 9 16 26 0 22 2 24
15 14 8 -6 19 -9 25 -5z m-84 -98 c4 -4 0 -7 -9 -7 -9 0 -18 4 -21 9 -7 10 20
9 30 -2z m160 -45 c-11 -11 -16 -12 -16 -4 0 18 24 43 29 30 2 -5 -4 -17 -13
-26z"/>
<path d="M3907 4726 c-61 -14 -130 -57 -156 -96 -15 -23 -15 -23 9 -10 14 7
33 19 43 28 13 12 22 13 40 5 14 -7 30 -7 39 -2 11 6 18 4 21 -5 4 -9 -8 -20
-33 -31 -43 -19 -92 -65 -56 -51 16 5 17 4 6 -9 -11 -13 -8 -15 18 -15 25 0
30 3 26 18 -4 13 -2 12 7 -3 20 -34 43 -52 83 -65 36 -12 40 -11 64 14 23 23
25 29 14 46 -7 11 -8 20 -3 20 19 0 23 41 7 65 -14 21 -14 25 -2 25 33 0 66
19 60 35 -14 36 -100 50 -187 31z m61 -158 c-2 -13 -11 -24 -20 -26 -14 -3
-15 0 -5 22 15 32 30 34 25 4z"/>
<path d="M4117 4323 c-4 -3 -7 -12 -7 -18 0 -16 46 -7 61 11 9 11 6 14 -18 14
-16 0 -33 -3 -36 -7z"/>
<path d="M4472 1875 c0 -16 2 -22 5 -12 2 9 2 23 0 30 -3 6 -5 -1 -5 -18z"/>
<path d="M4496 1864 c-4 -9 -4 -19 -1 -22 2 -3 7 3 11 12 4 9 4 19 1 22 -2 3
-7 -3 -11 -12z"/>
<path d="M4461 1814 c0 -11 3 -14 6 -6 3 7 2 16 -1 19 -3 4 -6 -2 -5 -13z"/>
<path d="M4484 1816 c-4 -9 -4 -20 0 -23 3 -4 6 2 7 13 0 19 1 19 8 0 5 -12
10 -15 14 -9 4 6 0 16 -8 23 -12 10 -16 9 -21 -4z"/>
<path d="M3321 4446 c-19 -23 -24 -81 -11 -121 16 -49 20 -41 9 18 -6 36 -5
57 6 83 15 37 14 42 -4 20z"/>
<path d="M3438 4363 c-9 -10 -19 -28 -22 -40 -4 -11 -14 -24 -22 -27 -12 -4
-13 -10 -4 -26 14 -27 33 -26 25 1 -5 15 2 32 24 59 17 21 31 41 31 44 0 12
-17 5 -32 -11z"/>
<path d="M3410 4153 c0 -5 4 -13 9 -18 11 -11 66 -209 76 -272 4 -24 12 -46
17 -50 8 -4 9 30 5 116 -8 152 -22 208 -51 216 -11 4 -29 9 -38 11 -10 3 -18
1 -18 -3z"/>
</g>
</svg>
